<?xml version="1.0" encoding="utf-8"?>
<!-- Generator: Adobe Illustrator 16.0.4, SVG Export Plug-In . SVG Version: 6.00 Build 0)  -->
<!DOCTYPE svg PUBLIC "-//W3C//DTD SVG 1.1//EN" "http://www.w3.org/Graphics/SVG/1.1/DTD/svg11.dtd">
<svg version="1.1" id="Layer_1" xmlns="http://www.w3.org/2000/svg" xmlns:xlink="http://www.w3.org/1999/xlink" x="0px" y="0px"
   width="36px" height="16px" viewBox="0 0 36 16" enable-background="new 0 0 36 16" xml:space="preserve">
<path fill="#FFFFFF" d="M35.997,4.071c0.121,3.058-3.211,5.833-6.423,5.833h-8.246l2.266-3.328c0.18-0.266,0.586-0.48,0.907-0.48
  h5.729c0.738,0,1.539-0.68,1.465-1.424c-0.061-0.6-0.547-0.856-1.061-0.863H17.818l2.261-3.328C20.262,0.215,20.667,0,20.991,0
  h10.505C33.756,0,35.898,1.653,35.997,4.071z M15.272,3.329L17.534,0H3.169c-0.32,0-0.728,0.215-0.907,0.481L0,3.809h14.363
  C14.685,3.809,15.092,3.596,15.272,3.329z M7.149,16h6.51c0.319,0,0.727-0.213,0.909-0.48l6.398-9.421h-4.118
  c-0.321,0-0.727,0.214-0.909,0.48l-5.632,8.292l0.929-8.772h-4.27l-0.918,8.691C5.978,15.458,6.47,16,7.149,16z M31.58,15.52
  l2.26-3.328h-13.48c-0.319,0-0.729,0.217-0.907,0.479L17.19,16h13.483C30.994,16,31.402,15.787,31.58,15.52z"/>
</svg>
